<svg width="40" height="40" viewBox="0 0 40 40" fill="none" xmlns="http://www.w3.org/2000/svg">
<path d="M16.3287 5C15.2337 5 14.2725 5.5625 13.5937 6.28875C12.915 7.01625 12.4262 7.925 11.9925 8.90625C11.3287 10.4188 10.855 12.1 10.43 13.6725C9.07249 14.0675 7.91999 14.56 6.99249 15.1562C5.90874 15.855 4.99999 16.8213 4.99999 18.125C4.99999 19.2575 5.69374 20.1663 6.56249 20.82C7.30499 21.3775 8.21749 21.8413 9.29749 22.2263C9.35999 22.5138 9.45374 22.8075 9.56999 23.0862C8.51624 23.6812 6.84499 24.8337 5.23499 27.0312L4.49249 28.0862L5.54749 28.8275L9.64749 31.64L7.96999 35H32.0325L30.3525 31.64L34.455 28.8275L35.5087 28.0862L34.7675 27.0312C33.155 24.8337 31.4862 23.6812 30.43 23.0862C30.5479 22.8086 30.6399 22.5208 30.705 22.2263C31.7837 21.8413 32.6962 21.3763 33.4387 20.82C34.3075 20.1663 35.0012 19.2575 35.0012 18.125C35.0012 16.8213 34.0925 15.855 33.0087 15.1562C32.0812 14.56 30.9287 14.0675 29.5712 13.6713C29.1025 12.0413 28.585 10.3325 27.9312 8.82875C27.5062 7.85625 27.0375 6.9625 26.3687 6.25C25.7 5.5375 24.7475 5 23.6725 5C22.945 5 22.3937 5.2 21.7975 5.35125C21.2025 5.5025 20.6012 5.625 20.0012 5.625C18.8012 5.625 17.7937 5 16.3287 5ZM16.3287 7.5C16.5875 7.5 18.125 8.125 20 8.125C20.9375 8.125 21.7725 7.935 22.4225 7.77375C23.0712 7.61125 23.565 7.5 23.6725 7.5C23.96 7.5 24.175 7.5925 24.5312 7.96875C24.8875 8.34375 25.3075 9.02375 25.6637 9.84375C26.3425 11.3962 26.86 13.5162 27.4225 15.4688C27.4225 15.4637 27.49 15.41 27.305 15.5075C26.9925 15.6788 26.3375 15.8988 25.5462 16.015C23.96 16.255 21.7962 16.25 20 16.25C18.2125 16.25 16.045 16.225 14.4525 15.9763C13.6575 15.855 13.0125 15.6388 12.695 15.4688C12.5975 15.415 12.5637 15.435 12.5387 15.43V15.3912C12.5437 15.3812 12.5337 15.3613 12.5387 15.3513L12.5775 15.3125C12.671 15.1444 12.7249 14.9571 12.735 14.765V14.7275C13.1837 13.0662 13.6862 11.3087 14.2975 9.92125C14.6625 9.0875 15.0587 8.40875 15.43 8.00875C15.8012 7.6075 16.055 7.5 16.3287 7.5ZM10.2337 16.3675C10.5175 16.9537 11.0162 17.4225 11.5237 17.695C12.2862 18.1 13.1587 18.2913 14.1012 18.4375C15.9862 18.73 18.1937 18.75 20 18.75C21.7975 18.75 24.0087 18.76 25.8987 18.4763C26.8462 18.335 27.71 18.15 28.4762 17.7338C28.9887 17.4563 29.4875 16.9625 29.7662 16.3675C30.5375 16.6412 31.1862 16.9338 31.6412 17.2263C32.3687 17.695 32.5 18.0425 32.5 18.125C32.5 18.1988 32.4375 18.4375 31.9137 18.8287C31.3912 19.2187 30.4937 19.6725 29.3362 20.0388C27.0212 20.7763 23.6912 21.25 20 21.25C16.3087 21.25 12.9787 20.7763 10.6637 20.0388C9.50624 19.6725 8.60874 19.2187 8.08624 18.8287C7.56249 18.4375 7.49999 18.1988 7.49999 18.125C7.49999 18.0425 7.59749 17.73 8.31999 17.265C8.77499 16.9725 9.44249 16.655 10.2337 16.3675ZM13.4762 23.2037C13.8862 23.2712 14.2925 23.3837 14.7262 23.4375C14.8887 24.5363 15.7425 25.5025 17.1087 25.5862C18.1637 25.6487 19.35 25.1513 19.4537 23.75H20.5475C20.65 25.1513 21.835 25.65 22.8912 25.5862C24.2575 25.5025 25.1125 24.5363 25.2737 23.4375C25.7075 23.3837 26.1137 23.2713 26.5237 23.2025L26.4062 23.9838C26.02 26.04 25.1025 27.9437 23.945 29.2587C22.7875 30.57 21.4312 31.2687 20 31.25C18.53 31.23 17.2025 30.5225 16.055 29.2188C14.9075 27.915 14.005 26.05 13.5937 23.9838L13.4762 23.2037ZM28.75 25C29.2137 25.2737 30.435 26.075 31.8362 27.6175L28.0462 30.2338L27.1487 30.8212L27.6175 31.7963L27.9687 32.5H24.0237C24.6884 32.0451 25.2921 31.507 25.82 30.8987C27.1975 29.3362 28.12 27.29 28.6325 25.0775C28.6762 25.0538 28.7112 25.025 28.75 25ZM11.2112 25.0388C11.26 25.0688 11.3187 25.0887 11.3675 25.1175C11.905 27.3 12.8225 29.3213 14.18 30.8588C14.7412 31.4988 15.395 32.0462 16.0937 32.5H12.0312L12.3825 31.7963L12.8512 30.8212L11.9525 30.2338L8.16499 27.6175C9.48749 26.1575 10.6937 25.3513 11.2112 25.0388Z" fill="black"/>
<g clip-path="url(#clip0_8_9)">
<path d="M0.621466 13.1638V13.5028H0.960449H2.63025C3.18968 17.4235 6.3053 20.5391 10.226 21.0985V22.7683V23.1073H10.565H12.4859H12.8249V22.7683V21.0985C16.7455 20.5391 19.8612 17.4235 20.4206 13.5028H22.0904H22.4294V13.1638V11.2429V10.9039H22.0904H20.4206C19.8612 6.98325 16.7455 3.86762 12.8249 3.3082V1.6384V1.29941H12.4859H10.565H10.226V1.6384V3.3082C6.3053 3.86762 3.18968 6.98325 2.63025 10.9039H0.960449H0.621466V11.2429V13.1638ZM14.4817 9.2471C13.6976 8.46305 12.6342 8.02258 11.5254 8.02258C10.4166 8.02258 9.35321 8.46305 8.56916 9.2471C7.78511 10.0312 7.34463 11.0946 7.34463 12.2034C7.34463 13.3122 7.78511 14.3756 8.56916 15.1596C9.35321 15.9437 10.4166 16.3842 11.5254 16.3842C12.6342 16.3842 13.6976 15.9437 14.4817 15.1596C15.2657 14.3756 15.7062 13.3122 15.7062 12.2034C15.7062 11.0946 15.2657 10.0312 14.4817 9.2471ZM7.01112 7.68907C8.20839 6.49181 9.83223 5.81919 11.5254 5.81919C13.2186 5.81919 14.8425 6.49181 16.0397 7.68907C17.237 8.88634 17.9096 10.5102 17.9096 12.2034C17.9096 13.8966 17.237 15.5204 16.0397 16.7177C14.8425 17.9149 13.2186 18.5876 11.5254 18.5876C9.83223 18.5876 8.20839 17.9149 7.01112 16.7177C5.81386 15.5204 5.14124 13.8966 5.14124 12.2034C5.14124 10.5102 5.81386 8.88634 7.01112 7.68907Z" fill="#FF3D00" stroke="white" stroke-width="0.677966"/>
</g>
<defs>
<clipPath id="clip0_8_9">
<rect width="23.0508" height="23.0508" fill="white" transform="translate(0 0.677979)"/>
</clipPath>
</defs>
</svg>
