<svg width="24" height="24" viewBox="0 0 24 24" fill="none" xmlns="http://www.w3.org/2000/svg">
<g clip-path="url(#clip0_7_4)">
<path d="M3.44445 23C2.77222 23 2.19656 22.7604 1.71745 22.2813C1.23834 21.8022 0.999187 21.227 1 20.5556V3.44445C1 2.77222 1.23956 2.19656 1.71867 1.71745C2.19778 1.23834 2.77304 0.999187 3.44445 1H20.5556C21.2278 1 21.8034 1.23956 22.2826 1.71867C22.7617 2.19778 23.0008 2.77304 23 3.44445V20.5556C23 21.2278 22.7604 21.8034 22.2813 22.2826C21.8022 22.7617 21.227 23.0008 20.5556 23H3.44445ZM3.44445 20.5556H20.5556V5.88889H3.44445V20.5556ZM12 18.1111C10.3296 18.1111 8.8373 17.6577 7.523 16.7508C6.2087 15.8439 5.25659 14.6677 4.66667 13.2222C5.25741 11.7759 6.20952 10.5993 7.523 9.69245C8.83648 8.78556 10.3288 8.33252 12 8.33333C13.6704 8.33333 15.1627 8.78678 16.477 9.69367C17.7913 10.6006 18.7434 11.7767 19.3333 13.2222C18.7426 14.6685 17.7905 15.8451 16.477 16.752C15.1635 17.6589 13.6712 18.1119 12 18.1111ZM12 15.0556C11.4907 15.0556 11.0577 14.8771 10.7008 14.5202C10.3439 14.1633 10.1659 13.7307 10.1667 13.2222C10.1667 12.713 10.3451 12.2799 10.702 11.923C11.0589 11.5661 11.4916 11.3881 12 11.3889C12.5093 11.3889 12.9423 11.5673 13.2992 11.9242C13.6561 12.2811 13.8341 12.7138 13.8333 13.2222C13.8333 13.7315 13.6549 14.1646 13.298 14.5214C12.9411 14.8783 12.5084 15.0564 12 15.0556ZM12 16.2778C12.8556 16.2778 13.5787 15.9824 14.1694 15.3917C14.7602 14.8009 15.0556 14.0778 15.0556 13.2222C15.0556 12.3667 14.7602 11.6435 14.1694 11.0528C13.5787 10.462 12.8556 10.1667 12 10.1667C11.1444 10.1667 10.4213 10.462 9.83056 11.0528C9.23982 11.6435 8.94445 12.3667 8.94445 13.2222C8.94445 14.0778 9.23982 14.8009 9.83056 15.3917C10.4213 15.9824 11.1444 16.2778 12 16.2778Z" fill="black"/>
</g>
<defs>
<clipPath id="clip0_7_4">
<rect width="24" height="24" fill="white"/>
</clipPath>
</defs>
</svg>
